<svg width="44" height="44" viewBox="0 0 44 44" xmlns="http://www.w3.org/2000/svg">
    <g fill="none" fill-rule="evenodd">
        <path d="M0 0h44v44H12C5.373 44 0 38.627 0 32V0z" fill="#1351F9"/>
        <path d="M29.295 29.62A20.556 20.556 0 0 1 33 16.397h-5.524a16.29 16.29 0 0 0-2.095 7.381 17.703 17.703 0 0 1-.937-9.08H19.99a17.61 17.61 0 0 0-2.545 9.074A20.823 20.823 0 0 1 16.688 13h-5.42c-.926 6.168.546 12.627 4.414 17.872h5.467c-.499-2.465-.47-5.015.086-7.47a17.536 17.536 0 0 0 2.59 6.219h5.47z" fill="#FFF"/>
    </g>
</svg>
