<svg data-v-a87e77c8="" width="20" height="20" viewBox="0 0 20 20" fill="none" xmlns="http://www.w3.org/2000/svg" class="item-icon"><mask id="path-1-inside-1_2827_11017" fill="white"><path fill-rule="evenodd" clip-rule="evenodd" d="M0 5C0 3.89543 0.895431 3 2 3H18C19.1046 3 20 3.89543 20 5V8C18.8954 8 18 8.89543 18 10C18 11.1046 18.8954 12 20 12V15C20 16.1046 19.1046 17 18 17H2C0.895431 17 0 16.1046 0 15V12C1.10457 12 2 11.1046 2 10C2 8.89543 1.10457 8 0 8V5Z"></path></mask><path d="M20 8V9H21V8H20ZM20 12H21V11H20V12ZM0 12V11H-1V12H0ZM0 8H-1V9H0V8ZM2 2C0.343146 2 -1 3.34315 -1 5H1C1 4.44772 1.44772 4 2 4V2ZM18 2H2V4H18V2ZM21 5C21 3.34315 19.6569 2 18 2V4C18.5523 4 19 4.44772 19 5H21ZM21 8V5H19V8H21ZM19 10C19 9.44771 19.4477 9 20 9V7C18.3431 7 17 8.34315 17 10H19ZM20 11C19.4477 11 19 10.5523 19 10H17C17 11.6569 18.3431 13 20 13V11ZM21 15V12H19V15H21ZM18 18C19.6569 18 21 16.6569 21 15H19C19 15.5523 18.5523 16 18 16V18ZM2 18H18V16H2V18ZM-1 15C-1 16.6569 0.343147 18 2 18V16C1.44772 16 1 15.5523 1 15H-1ZM-1 12V15H1V12H-1ZM1 10C1 10.5523 0.552285 11 0 11V13C1.65685 13 3 11.6569 3 10H1ZM0 9C0.552285 9 1 9.44772 1 10H3C3 8.34315 1.65685 7 0 7V9ZM-1 5V8H1V5H-1Z" fill="currentColor" mask="url(#path-1-inside-1_2827_11017)"></path><path fill-rule="evenodd" clip-rule="evenodd" d="M5.5 6.5C5.22386 6.5 5 6.27614 5 6C5 5.72386 5.22386 5.5 5.5 5.5C5.77614 5.5 6 5.72386 6 6C6 6.27614 5.77614 6.5 5.5 6.5ZM5.5 8.5C5.22386 8.5 5 8.27614 5 8C5 7.72386 5.22386 7.5 5.5 7.5C5.77614 7.5 6 7.72386 6 8C6 8.27614 5.77614 8.5 5.5 8.5ZM5 10C5 10.2761 5.22386 10.5 5.5 10.5C5.77614 10.5 6 10.2761 6 10C6 9.72386 5.77614 9.5 5.5 9.5C5.22386 9.5 5 9.72386 5 10ZM5.5 12.5C5.22386 12.5 5 12.2761 5 12C5 11.7239 5.22386 11.5 5.5 11.5C5.77614 11.5 6 11.7239 6 12C6 12.2761 5.77614 12.5 5.5 12.5ZM5 14C5 14.2761 5.22386 14.5 5.5 14.5C5.77614 14.5 6 14.2761 6 14C6 13.7239 5.77614 13.5 5.5 13.5C5.22386 13.5 5 13.7239 5 14Z" fill="currentColor"></path></svg>