<svg data-v-a87e77c8="" width="20" height="20" viewBox="0 0 20 20" fill="none" xmlns="http://www.w3.org/2000/svg" class="item-icon"><path fill-rule="evenodd" clip-rule="evenodd" d="M4.944 11.3776C5.2 11.3776 5.536 11.3392 5.8112 11.0704L5.5936 10.7568C5.4112 10.9456 5.1744 10.9968 4.96 10.9968C4.672 10.9968 4.4128 10.8144 4.4128 10.3248V10.088C4.4128 9.5152 4.688 9.3776 4.9632 9.3776C5.1712 9.3776 5.3472 9.4096 5.536 9.5696L5.7568 9.256C5.5232 9.0672 5.2896 9 4.9632 9C4.4288 9 4 9.304 4 9.9952V10.408C4 11.096 4.4416 11.3776 4.944 11.3776ZM7.0816 11.3776C7.6128 11.3776 8.0576 11.1056 8.0576 10.3792V9.9984C8.0576 9.2848 7.6064 9 7.0816 9C6.56 9 6.1056 9.2848 6.1056 9.9984V10.3792C6.1056 11.1056 6.5504 11.3776 7.0816 11.3776ZM6.5184 10.328C6.5184 10.8592 6.7744 11.0032 7.0816 11.0032C7.3952 11.0032 7.6448 10.8592 7.6448 10.328V10.0496C7.6448 9.5184 7.3952 9.3744 7.0816 9.3744C6.7744 9.3744 6.5184 9.5184 6.5184 10.0496V10.328ZM9.3472 11.3776C9.9264 11.3776 10.2432 11.1472 10.2432 10.392V9.0352H9.8336V10.3984C9.8336 10.8528 9.6832 11.0064 9.3472 11.0064C9.0112 11.0064 8.8608 10.8528 8.8608 10.3984V9.0352H8.4512V10.392C8.4512 11.1472 8.7712 11.3776 9.3472 11.3776ZM11.1296 10.456V11.3424H10.72V9.0352H11.5904C12.144 9.0352 12.3808 9.3168 12.3808 9.6944V9.7616C12.3808 10.136 12.1248 10.456 11.5904 10.456H11.1296ZM11.536 10.1104H11.1296V9.3776H11.5712C11.8048 9.3776 11.968 9.4448 11.968 9.6976V9.7552C11.968 10.024 11.8048 10.1104 11.536 10.1104ZM14.624 10.3792C14.624 11.1056 14.1792 11.3776 13.648 11.3776C13.1168 11.3776 12.672 11.1056 12.672 10.3792V9.9984C12.672 9.2848 13.1264 9 13.648 9C14.1728 9 14.624 9.2848 14.624 9.9984V10.3792ZM13.648 11.0032C13.3408 11.0032 13.0848 10.8592 13.0848 10.328V10.0496C13.0848 9.5184 13.3408 9.3744 13.648 9.3744C13.9616 9.3744 14.2112 9.5184 14.2112 10.0496V10.328C14.2112 10.8592 13.9616 11.0032 13.648 11.0032ZM15.4432 9.5856V11.3424H15.0592V9.0352H15.5296L16.3168 10.4336C16.3648 10.52 16.4288 10.648 16.464 10.7984V9.0352H16.848V11.3424H16.3776L15.5872 9.9408C15.5296 9.8384 15.472 9.7168 15.4432 9.5856Z" fill="currentColor"></path><mask id="path-2-inside-1_2827_11030" fill="white"><path fill-rule="evenodd" clip-rule="evenodd" d="M2 3C0.895431 3 0 3.89543 0 5V8C1.10457 8 2 8.89543 2 10C2 11.1046 1.10457 12 0 12V15C0 16.1046 0.895431 17 2 17H18C19.1046 17 20 16.1046 20 15V5C20 3.89543 19.1046 3 18 3H2Z"></path></mask><path d="M0 8H-1V9H0V8ZM0 12V11H-1V12H0ZM1 5C1 4.44772 1.44772 4 2 4V2C0.343146 2 -1 3.34315 -1 5H1ZM1 8V5H-1V8H1ZM0 9C0.552285 9 1 9.44772 1 10H3C3 8.34315 1.65685 7 0 7V9ZM1 10C1 10.5523 0.552285 11 0 11V13C1.65685 13 3 11.6569 3 10H1ZM1 15V12H-1V15H1ZM2 16C1.44772 16 1 15.5523 1 15H-1C-1 16.6569 0.343147 18 2 18V16ZM18 16H2V18H18V16ZM19 15C19 15.5523 18.5523 16 18 16V18C19.6569 18 21 16.6569 21 15H19ZM19 5V15H21V5H19ZM18 4C18.5523 4 19 4.44772 19 5H21C21 3.34315 19.6569 2 18 2V4ZM2 4H18V2H2V4Z" fill="currentColor" mask="url(#path-2-inside-1_2827_11030)"></path></svg>