<svg xmlns="http://www.w3.org/2000/svg" width="676.58545" height="262.17667" viewBox="0 0 676.58545 262.17667"><path d="M1.057 261.183c-2.928-2.928.408-5.822 7.781-6.748 2.578-.325 7.219-1.404 10.312-2.4 5.658-1.82 22.053-8.185 22.667-8.8.181-.18-.78-2.752-2.136-5.713-1.927-4.21-2.467-6.85-2.473-12.096-.019-17.413 12.765-33.998 47.567-61.711 9.226-7.346 33.384-23.849 48.78-33.323 14.154-8.709 28.521-17.226 38.408-22.77 23.381-13.108 63.028-32.692 79.687-39.361 4.125-1.651 8.239-3.389 9.142-3.86.902-.473 4.488-1.958 7.968-3.301 3.48-1.343 8.437-3.264 11.015-4.268 17.88-6.962 60.812-21.132 77.813-25.681 4.64-1.242 13.922-3.755 20.625-5.585 6.703-1.83 15.984-4.206 20.625-5.28 4.64-1.074 10.758-2.495 13.594-3.159 19.694-4.608 34.848-7.53 60.937-11.75 45.561-7.37 116.527-7.138 164.531.54 22.664 3.625 36.59 11.136 38.518 20.775.494 2.47.057 3.263-3.508 6.373-8.213 7.165-36.957 18.805-75.322 30.503-7.219 2.202-17.344 5.368-22.5 7.038a2156.097 2156.097 0 0 1-20.625 6.526c-26.598 8.193-55.43 17.077-77.813 24.423-5.671 1.865-12.421 3.841-15 4.392-6.37 2.492-13.365 4.47-19.218 6.353-2.836.946-9.586 3.061-15 4.7-5.414 1.64-12.447 3.997-15.629 5.239-3.182 1.241-6.107 2.257-6.5 2.257-33.387 11.391-64.63 20.096-98.34 31.896-1.547.547-19.477 6.514-39.844 13.259-108.736 36.011-136.062 45.113-142.031 47.307a1997.03 1997.03 0 0 1-12.656 4.595c-18.126 6.495-27.414 10.03-53.276 20.278-7.738 3.066-7.789 3.107-5.766 4.745 12.742 10.318 62.315 5.393 119.16-11.837 16.214-4.915 20.737-6.802 24.949-10.407 2.103-1.8 4.189-3.274 4.634-3.274.445 0 2.276-1.196 4.07-2.658 4.009-3.268 14.77-9.537 21.072-12.276 2.579-1.12 6.206-2.85 8.06-3.844 4.737-2.536 22.995-9.844 34.097-13.646 11.254-3.855 20.4-4.432 22.027-1.39.736 1.373.603 2.176-.551 3.33-4.226 4.225-46.512 23.307-73.945 33.367-2.578.946-8.273 3.04-12.656 4.653-8.183 3.013-15 8.13-15 11.26 0 3.158 3.344 4.85 9.564 4.84 6.868-.013 15.19-2.09 32.154-8.024 14.41-5.04 41.512-15.65 50.64-19.823 1.554-.711 4.028-1.75 5.498-2.308 1.47-.56 7.163-3.73 12.652-7.045 13.53-8.175 18.31-10.237 20.73-8.942 1.038.556 1.887 1.79 1.887 2.744 0 1.69-1.016 2.254-24.844 13.813-4.879 2.367-10.556 6.525-9.807 7.184.763.67 18.54-7.48 29.814-13.67 8.819-4.843 11.247-5.808 12.571-4.995.902.553 1.64 1.476 1.64 2.05 0 .573-2.936 3.319-6.525 6.102-3.59 2.783-6.542 5.365-6.562 5.738-.02.374 2.126-.596 4.77-2.155 5.563-3.28 7.735-3.236 8.132.167.247 2.124-.276 2.634-4.22 4.114-2.475.929-6.914 2.893-9.864 4.364-2.95 1.472-6.627 2.675-8.17 2.675-3.36 0-5.085-2.442-3.6-5.096.78-1.394.714-1.652-.314-1.224-.716.299-5.275 2.286-10.13 4.416-11.569 5.077-14.598 4.944-17.595-.768-.266-.508-9.998 3.062-21.39 7.846-5.672 2.382-15.586 6.161-22.031 8.399-6.446 2.237-13.451 4.699-15.568 5.47-7.435 2.71-19.172 4.604-24.447 3.945-7.118-.889-10.077-3.606-10.114-9.286-.03-4.623-.538-4.977-4.81-3.353-11.383 4.328-46.412 13.073-64.124 16.009-33.15 5.494-52.23 4.728-64.376-2.586l-5.346-3.219-12.717 5.133c-24.055 9.709-29.376 11.186-31.748 8.814Zm54.26-22.893c16.61-6.774 70.673-26.225 89.927-32.354 4.899-1.56 10.383-3.376 12.188-4.036 4.512-1.651 7.58-2.693 24.843-8.433 14.377-4.78 23.808-7.857 82.5-26.915 14.438-4.688 27.094-8.861 28.125-9.273 1.032-.412 9.68-3.28 19.22-6.372 60.398-19.785 128.082-41.706 183.28-58.74 17.164-5.36 21.368-6.651 52.032-15.993 87.853-26.766 117.061-37.77 123.089-46.376 2.957-4.221-2.235-10.806-11.73-14.876-15.476-6.633-63.365-11.679-110.422-11.634-36.399.035-63.171 2.728-106.875 10.751-24.534 4.505-68.003 15.258-90 22.264-7.73 2.462-10.107 3.184-18.75 5.696-3.867 1.125-8.086 2.483-9.375 3.019-1.289.536-6.351 2.337-11.25 4.002-14.103 4.796-35.727 12.706-40.026 14.642-2.164.974-4.202 1.771-4.53 1.771-2.752 0-59.256 26.486-75.444 35.363-2.836 1.555-9.922 5.436-15.747 8.623-5.826 3.187-14.771 8.305-19.88 11.373-5.108 3.069-9.556 5.579-9.885 5.579-.329 0-1.719.866-3.09 1.926-1.37 1.059-7.976 5.439-14.679 9.734-14.171 9.079-25.416 16.7-30.517 20.684a354.857 354.857 0 0 1-8.105 6.082c-14.422 10.473-36.045 31.415-41.923 40.604-3.43 5.362-7.111 15.045-7.111 18.705 0 3.41 2.34 11.562 4.083 14.222 1.968 3.003 2.603 3 10.052-.038zm164.578-20.13c29.176-11.457 62.942-26.938 60.586-27.777-4.063-1.448-49.818 17.848-64.924 27.38-6.392 4.033-5.2 4.142 4.338.397z" style="fill:#000"/></svg>