<svg xmlns="http://www.w3.org/2000/svg" enable-background="new 0 0 24 24" height="24" viewBox="0 0 24 24" width="24" focusable="false" aria-hidden="true" style="pointer-events: none; display: inherit; width: 100%; height: 100%;"><path d="m3.85 3.15-.7.7L6.19 6.9C4.31 8.11 2.83 9.89 2 12c1.57 3.99 5.45 6.82 10 6.82 1.77 0 3.44-.43 4.92-1.2l3.23 3.23.71-.71L3.85 3.15zM13.8 14.5c-.51.37-1.13.59-1.8.59-1.7 0-3.09-1.39-3.09-3.09 0-.67.22-1.29.59-1.8l4.3 4.3zM12 17.82c-3.9 0-7.35-2.27-8.92-5.82.82-1.87 2.18-3.36 3.83-4.38L8.79 9.5c-.54.69-.88 1.56-.88 2.5 0 2.25 1.84 4.09 4.09 4.09.95 0 1.81-.34 2.5-.88l1.67 1.67c-1.27.61-2.69.94-4.17.94zm-.51-9.87c.17-.02.34-.05.51-.05 2.25 0 4.09 1.84 4.09 4.09 0 .17-.02.34-.05.51l-1.01-1.01c-.21-1.31-1.24-2.33-2.55-2.55l-.99-.99zM9.12 5.59c.92-.26 1.88-.41 2.88-.41 4.55 0 8.43 2.83 10 6.82-.58 1.47-1.48 2.78-2.61 3.85l-.72-.72c.93-.87 1.71-1.92 2.25-3.13C19.35 8.45 15.9 6.18 12 6.18c-.7 0-1.39.08-2.06.22l-.82-.81z"></path></svg>