<svg xmlns="http://www.w3.org/2000/svg" enable-background="new 0 0 24 24" height="24" viewBox="0 0 24 24" width="24" focusable="false" aria-hidden="true" style="pointer-events: none; display: inherit; width: 100%; height: 100%;"><path d="m3.85 3.15-.7.7 3.48 3.48C6.22 8.21 6 9.22 6 10.32v5.15l-2 1.88V19h14.29l1.85 1.85.71-.71-17-16.99zM5 18v-.23l2-1.88v-5.47c0-.85.15-1.62.41-2.3L17.29 18H5zm5 2h4c0 1.1-.9 2-2 2s-2-.9-2-2zM9.28 5.75l-.7-.7c.43-.29.9-.54 1.42-.7v-.39c0-1.42 1.49-2.5 2.99-1.76.65.32 1.01 1.03 1.01 1.76v.39c2.44.75 4 3.06 4 5.98v4.14l-1-1v-3.05c0-2.47-1.19-4.36-3.13-5.1-1.26-.53-2.64-.5-3.84.03-.27.11-.51.24-.75.4z"></path></svg>